<svg width="132" height="47" viewBox="0 0 132 47" fill="none" xmlns="http://www.w3.org/2000/svg">
<g filter="url(#filter0_d_1244_2847)">
<path d="M67.0129 5.19948C68.9361 1.74251 73.0102 -0.707931 77.0184 0.184772C80.6491 0.867779 83.2913 3.83347 84.861 7.00886C83.5189 7.85962 82.1709 8.71038 80.8228 9.56115C79.5287 7.63794 78.1687 5.17552 75.6464 4.80406C73.16 4.83402 71.2188 6.90101 70.3501 9.06986C68.4688 13.7131 68.3669 18.8716 68.8403 23.7965C69.1398 26.6663 69.8588 29.608 71.5903 31.9746C73.5674 34.3471 77.3299 34.7725 79.9062 33.1369C79.8942 28.6794 79.9062 24.2159 79.9002 19.7583C78.1148 19.7583 76.3294 19.7583 74.538 19.7583C74.538 18.1107 74.532 16.4631 74.538 14.8155C77.971 14.8155 81.41 14.8155 84.849 14.8155C84.855 21.5557 84.825 28.2959 84.861 35.0361C83.1055 36.5399 81.2362 38.1276 78.9236 38.6489C76.0777 38.9245 72.8844 39.1521 70.4579 37.3308C65.7248 34.3471 64.2929 28.3978 63.8315 23.1794C63.3762 17.0802 63.8675 10.5916 67.0129 5.19948Z" fill="black"/>
</g>
<path d="M0.00748919 0.72995C5.22591 0.735941 10.4503 0.72995 15.6747 0.735941C15.6747 2.33562 15.6747 3.9293 15.6747 5.52898C12.1339 5.53497 8.59301 5.52898 5.05216 5.52898C5.04617 8.62648 5.05216 11.718 5.04617 14.8155C8.3234 14.8155 11.6006 14.8155 14.8779 14.8155C14.8779 16.4152 14.8779 18.0088 14.8779 19.6085C11.6006 19.6085 8.3234 19.6085 5.04617 19.6085C5.05216 25.8514 5.04617 32.0884 5.04617 38.3313C3.3686 38.3313 1.68505 38.3313 0.00149775 38.3313C0.00149775 25.7975 -0.0044934 13.2637 0.00748919 0.72995Z" fill="black"/>
<path d="M17.1074 0.735962C18.791 0.735962 20.4745 0.735962 22.1581 0.735962C22.1641 11.6701 22.1521 22.6042 22.1581 33.5383C25.3095 33.5383 28.4609 33.5323 31.6123 33.5383C31.6123 35.138 31.6123 36.7317 31.6123 38.3313C26.7774 38.3313 21.9424 38.3313 17.1074 38.3313C17.1074 25.7975 17.1074 13.2697 17.1074 0.735962Z" fill="black"/>
<path d="M43.3308 3.6717C47.309 -0.642031 55.0258 -0.606083 58.9261 3.79153C60.9093 5.93641 61.4365 8.98598 61.4245 11.8079C61.4125 20.699 61.4245 29.59 61.4185 38.4811C59.735 38.4811 58.0514 38.4811 56.3679 38.4811C56.3619 29.3803 56.3798 20.2796 56.3619 11.1788C56.4278 8.25504 54.1032 5.13358 50.9877 5.24741C47.8662 5.17552 45.5056 8.19513 45.5955 11.1728C45.5656 20.2736 45.5955 29.3803 45.5835 38.4811C43.9 38.4811 42.2224 38.4811 40.5389 38.4811C40.5329 29.584 40.5449 20.693 40.5329 11.8019C40.4909 8.89012 41.2578 5.81658 43.3308 3.6717Z" fill="black"/>
<path d="M86.8168 0.735962C92.9399 0.735962 99.069 0.735962 105.192 0.735962C105.15 2.20982 105.45 3.77355 104.839 5.16952C100.771 14.6238 96.6725 24.0721 92.6164 33.5323C96.8822 33.5383 101.148 33.5323 105.408 33.5383C105.408 35.138 105.414 36.7317 105.414 38.3313C99.1409 38.3313 92.874 38.3313 86.6012 38.3313C86.6431 36.7676 86.3375 35.096 87.1164 33.6521C91.1965 24.2817 95.2406 14.9054 99.2967 5.529C95.1388 5.529 90.9748 5.529 86.8168 5.529C86.8109 3.92932 86.8109 2.33564 86.8168 0.735962Z" fill="black"/>
<path d="M106.369 0.735941C108.238 0.735941 110.108 0.735941 111.977 0.72995C114.296 4.67222 116.602 8.62648 118.891 12.5807C121.216 8.62648 123.534 4.67222 125.877 0.72995C127.704 0.735941 129.531 0.72995 131.365 0.747924C128.459 6.46362 124.96 11.8618 121.809 17.4457C121.216 18.2365 121.353 19.243 121.329 20.1657C121.359 26.2229 121.341 32.2801 121.341 38.3313C119.694 38.3313 118.052 38.3313 116.405 38.3313C116.405 32.0764 116.393 25.8155 116.411 19.5606C116.596 18.2006 115.722 17.0982 115.104 15.9838C112.175 10.9092 109.275 5.82255 106.369 0.735941Z" fill="black"/>
<path d="M32.9551 0.777924C34.6326 0.777924 36.3102 0.777924 37.9878 0.777924C37.9878 13.3117 37.9878 25.8515 37.9878 38.3853C36.3102 38.3853 34.6326 38.3913 32.9551 38.3913C32.9551 25.8515 32.9551 13.3117 32.9551 0.777924Z" fill="black"/>
<defs>
<filter id="filter0_d_1244_2847" x="59.6855" y="0" width="29.1758" height="46.8349" filterUnits="userSpaceOnUse" color-interpolation-filters="sRGB">
<feFlood flood-opacity="0" result="BackgroundImageFix"/>
<feColorMatrix in="SourceAlpha" type="matrix" values="0 0 0 0 0 0 0 0 0 0 0 0 0 0 0 0 0 0 127 0" result="hardAlpha"/>
<feOffset dy="4"/>
<feGaussianBlur stdDeviation="2"/>
<feComposite in2="hardAlpha" operator="out"/>
<feColorMatrix type="matrix" values="0 0 0 0 0 0 0 0 0 0 0 0 0 0 0 0 0 0 0.25 0"/>
<feBlend mode="normal" in2="BackgroundImageFix" result="effect1_dropShadow_1244_2847"/>
<feBlend mode="normal" in="SourceGraphic" in2="effect1_dropShadow_1244_2847" result="shape"/>
</filter>
</defs>
</svg>
